# xmcd CD database file
#
# Track frame offsets:
#	150
#	35625
#	48585
#	75067
#	98645
#
# Disc length: 1529 seconds
#
# Revision: 0
# Processed by: cddbd v1.5.2PL0 Copyright (c) Steve Scherf et al.
# Submitted via: CDex 1.70beta2
#
DISCID=2e05f705
DTITLE=MARSALIS Wynton - Live at the Village Vanguard [CD8] - bonus
DYEAR=2001
DGENRE=Jazz
TTITLE0=High Rise Riff
TTITLE1=King Porter Stomp
TTITLE2=You don?t Know What Love Is
TTITLE3=Stars Fall On Alabama
TTITLE4=Tom Cat Blues
EXTD=YEAR: 2001
EXTT0=
EXTT1=
EXTT2=
EXTT3=
EXTT4=
PLAYORDER=
